<svg xmlns="http://www.w3.org/2000/svg" x="0px" y="0px" width="100" height="100" viewBox="0 0 50 50">
<path d="M 48.994141 9.9648438 L 42.994141 10.001953 C 42.587141 10.003953 42.221313 10.252859 42.070312 10.630859 L 41 13.308594 L 39.929688 10.628906 C 39.777687 10.248906 39.409 10 39 10 L 35 10 L 35 11 L 34.591797 10.591797 C 34.212797 10.212797 33.699109 10 33.162109 10 L 26.001953 10 C 25.360953 10 24.745969 10.254031 24.292969 10.707031 L 24 11 L 23.699219 10.699219 C 23.251219 10.251219 22.644719 10 22.011719 10 L 13 10 L 13 11 L 12.707031 10.707031 C 12.254031 10.254031 11.640953 10 11.001953 10 L 1 10 C 0.596 10 0.23017187 10.244187 0.076171875 10.617188 C -0.078828125 10.991188 0.00696875 11.421031 0.29296875 11.707031 L 2 13.414062 L 2 36 C 2 36.382 2.2175469 36.730437 2.5605469 36.898438 C 2.6995469 36.966437 2.851 37 3 37 C 3.218 37 3.4342813 36.928063 3.6132812 36.789062 L 12.613281 29.789062 C 12.645281 29.763063 12.677031 29.737031 12.707031 29.707031 C 13.108031 29.306031 13.376359 28.959578 13.568359 28.642578 L 19.582031 32.976562 C 19.757031 33.102562 19.962969 33.166016 20.167969 33.166016 C 20.378969 33.166016 20.590578 33.099797 20.767578 32.966797 L 24 30.541016 L 27.232422 32.966797 C 27.409422 33.099797 27.621031 33.166016 27.832031 33.166016 C 28.037031 33.166016 28.242969 33.102562 28.417969 32.976562 L 34.988281 28.240234 L 38.400391 30.800781 C 38.703391 31.028781 39.108266 31.062531 39.447266 30.894531 C 39.786266 30.724531 40 30.379 40 30 L 40 29.236328 L 40 28 L 40.976562 29.953125 L 41.023438 29.953125 L 42 28 L 42 29.236328 L 42 30 L 42 33 C 42 33.314 42.148391 33.610828 42.400391 33.798828 L 46.400391 36.800781 C 46.576391 36.932781 46.788 37 47 37 C 47.152 37 47.306266 36.964531 47.447266 36.894531 C 47.786266 36.724531 48 36.379 48 36 L 48 13.408203 L 49.712891 11.664062 C 49.995891 11.376062 50.078875 10.946219 49.921875 10.574219 C 49.765875 10.204219 49.401 9.9648438 49 9.9648438 L 48.994141 9.9648438 z M 46.601562 11.978516 L 46.287109 12.298828 C 46.103109 12.485828 46 12.738 46 13 L 46 34 L 44 32.5 L 44 25 C 44 24.536 43.680516 24.133344 43.228516 24.027344 C 42.778516 23.919344 42.312469 24.137734 42.105469 24.552734 L 41 26.763672 L 39.894531 24.552734 C 39.687531 24.137734 39.217484 23.920344 38.771484 24.027344 C 38.319484 24.133344 38 24.536 38 25 L 38 28 L 36 26.5 L 36 12 L 38.322266 12 L 40.070312 16.371094 C 40.223312 16.750094 40.591 17 41 17 C 41.409 17 41.776688 16.750094 41.929688 16.371094 L 43.679688 11.996094 L 46.601562 11.978516 z M 3.4140625 12 L 11 12 C 11.432 12 12 12.629 12 13 L 12 27 C 12 27.37 11.999938 27.577 11.335938 28.25 L 4 33.955078 L 4 13 C 4 12.735 3.8950313 12.479969 3.7070312 12.292969 L 3.4140625 12 z M 14 12 L 23 12 L 23 28.792969 L 20.154297 30.925781 L 14 26.488281 L 14 13 L 14 12 z M 25 12 L 34 12 L 34 26.488281 L 27.845703 30.925781 L 25 28.792969 L 25 12 z M 7 15 L 7 25 L 10 23 L 10 15 L 7 15 z M 17 15 L 17 23 L 20 25 L 20 15 L 17 15 z M 28 15 L 28 25 L 31 23 L 31 15 L 28 15 z"></path>
</svg>
